# xmcd
#
# Track frame offsets: 
#        150
#        16012
#        33506
#        48419
#        66987
#        82650
#        94050
#        112877
#        125789
#        142632
#
# Disc length: 2119 seconds
#
# Revision: 17
# Processed by: cddbd v1.5.2PL0 Copyright (c) Steve Scherf et al.
# Submitted via: ExactAudioCopyFreeDBPlugin 1.0
#
DISCID=7408450a
DTITLE=Vince Gill - These Days [disc 3] Some Things Never Get Old
DYEAR=2006
DGENRE=Country
TTITLE0=This New Heartache
TTITLE1=The Only Love
TTITLE2=Out of My Mind
TTITLE3=The Sight of Me Without You
TTITLE4=I Can't Let Go
TTITLE5=Don't Pretend with Me
TTITLE6=Some Things Never Get Old
TTITLE7=Sweet Little Corrina
TTITLE8=If I Can Make Mississippi
TTITLE9=Take This Country Back
EXTD=
EXTT0=
EXTT1=
EXTT2=
EXTT3=
EXTT4=
EXTT5=
EXTT6=
EXTT7=
EXTT8=
EXTT9=
PLAYORDER=
